# xmcd CD database file
#
# Track frame offsets:
#	150
#	16312
#	35592
#	57452
#	81642
#	99227
#	113190
#	124732
#	143975
#	173537
#	193675
#	209545
#	231255
#	247262
#
# Disc length: 3508 seconds
#
# Revision: 3
# Processed by: cddbd v1.5.1PL2 Copyright (c) Steve Scherf et al.
# Submitted via: CDex 1.51
#
DISCID=cc0db20e
DTITLE=G Love and Special Sauce - G Love and Special Sauce
DYEAR=1994
DGENRE=Blues
TTITLE0=The Things That I Used To Do
TTITLE1=Blues Music
TTITLE2=Garbage Man
TTITLE3=Eyes Have Miles
TTITLE4=Baby's Got Sauce
TTITLE5=Rhyme For The Summertime
TTITLE6=Cold Beverage
TTITLE7=Fatman
TTITLE8=This Ain't Living
TTITLE9=Walk To Slide
TTITLE10=Shooting Hoops
TTITLE11=Some Peoples Like That
TTITLE12=Town To Town
TTITLE13=I Love You
EXTD=YEAR: 1994
EXTT0=
EXTT1=
EXTT2=
EXTT3=
EXTT4=
EXTT5=
EXTT6=
EXTT7=
EXTT8=
EXTT9=
EXTT10=
EXTT11=
EXTT12=
EXTT13=
PLAYORDER=
